<svg width="800" height="562" font-weight="400" viewBox="0 0 210 148" font-family="sans-serif"
  xmlns="http://www.w3.org/2000/svg">
  <g stroke="#000">
    <path fill="#fff" stroke-width=".265" d="M0 0h210V148H0z" />
    <path d="M0 46h210" fill="none" stroke-width=".665" />
    <path
      d="M0 20h210M104 0v46M104 33h105M140 46.193V33M176 33v13M0 76h210M104 76v72M0 104l104 0M0 123h210M144 123l0-9M104 114h105M104 86h106"
      fill="none" stroke-width=".265" />
  </g>
  <g font-size="2" stroke-width=".065">
    <text x="5" y="4">
      (1)
    </text><text x="105" y="4">
      (2)
    </text><text x="5" y="23">
      (3)
    </text><text x="105" y="23">
      (4)
    </text><text x="105" y="35">
      (5)
    </text><text x="141" y="35">
      (6)
    </text><text x="177" y="35">
      (7)
    </text><text x="5" y="49">
      (8)
    </text><text x="5" y="79">
      (9)
    </text><text x="105" y="79">
      (10)
    </text><text x="105" y="89">
      (11)
    </text><text x="5" y="106">
      (12)
    </text><text x="105" y="116">
      (13)
    </text><text x="145" y="116">
      (14)
    </text><text x="5" y="126">
      (15)
    </text><text x="105" y="126">
      (16)
    </text><text x="5" y="146">
      (17)
    </text><text x="106" y="146">
      Warenanhänger VDA 4902, Version 4
    </text>
  </g>
  <g stroke-width=".065"><text x="6" y="85" font-size="3">
      <tspan x="6" y="9">{{ADDR1}}</tspan>
      <tspan x="6" y="13">{{ADDR2}}</tspan>
      <tspan x="6" y="17">{{ADDR3}}</tspan>
    </text><text x="106" y="17" font-size="13.5">
      {{DESTINATION}}
    </text><text x="38" y="28" font-size="8">
      {{LABEL_NR}}
    </text><text x="106" y="30" font-size="5">
      {{SUPPLIER_ADDR_SHORT}}
    </text><text x="106" y="42" font-size="6">
      {{NETTO_WEIGHT}}
    </text><text x="142" y="42" font-size="6.35">
      {{BRUTTO_WEIGHT}}
    </text><text x="179" y="42" font-size="6.35">
      {{PACKAGES_COUNT}}
    </text><text x="5" y="60" font-size="12.7">
      {{CUSTOMER_ITEM_NR}}
    </text><text x="22" y="87" font-size="13">
      {{QUANTITY}}
    </text><text x="106" y="85" font-size="6">
      {{DESCRIPTION}}
    </text><text x="110" y="99" font-size="12.7">
      {{SUPPLIER_ITEM_NR}}
    </text><text x="39" y="109" font-size="6">
      {{SUPPLIER_NR}}
    </text><text x="107" y="122" font-size="7">
      {{DATE}}
    </text><text x="147" y="122" font-size="7">
      {{CONSTRUCTION_CHANGE}}
    </text><text x="39" y="129" font-size="6.35">
      {{PACKAGE_NR}}
    </text><text x="131" y="129" font-size="6.35">
      {{BATCH_NR}}
    </text><text x="10" y="146" font-size="2">
      {{SUPPLIER_ADDR}}
    </text></g>
  <g font-size="2" stroke-width=".065">
    <text x="8" y="4">
      Warenempfänger
    </text><text x="108" y="4">
      Abladestelle - Lagerort - Verwendungsschlüssel
    </text>
    <text x="8" y="23">
      Lieferschein-Nr (N)
    </text><text x="108" y="23">
      Lieferantenanchrift (Kurzname, Werk, PLZ, Ort)
    </text><text x="108" y="35">
      Gewicht netto
    </text><text x="144" y="35">
      Gewicht brutto
    </text><text x="180" y="35">
      Anzahl Packstücke
    </text><text x="8" y="49">
      Sach-Nr Kunde (P)
    </text><text x="8" y="79">
      Füllmenge (Q)
    </text><text x="109" y="79">
      Bezeichnung Lieferung, Leistung
    </text><text x="109" y="89">
      Sach-Nr. Lieferant (30S)
    </text><text x="9" y="106.3">
      Lieferanten-Nr (V)
    </text><text x="109" y="116.5">
      Datum
    </text><text x="149" y="116.5">
      Änderungsstand Konstruktion
    </text><text x="9" y="126.5">
      Packstück-Nr (S)
    </text><text x="109" y="126.5">
      Chargen-Nr (H)
    </text>
  </g>
</svg>
